PathFileType	4	(X/Y/Z)	Kaydara																																																																																																																																																																																																																												
DataRate	CameraRate	NumFrames	NumMarkers	Units	OrigDataRate	OrigDataStartFrame	OrigNumFrames																																																																																																																																																																																																																								
60	60	4	74	mm	60	1779	181																																																																																																																																																																																																																								
Frame#	Time	N_lasi			N_rasi			N_rpsi			N_lpsi			N_fneck			N_bneck			N_fhead			N_rhead			N_lhead			N_rshld			N_relbtop			N_relbext			N_relblow			N_rwrext			N_rwrtop			N_rwrlow			N_lshld			N_lelblow			N_lelbtop			N_lwrext			N_lwrtop			N_lwrlow			N_rtopleg			N_ltopleg			N_rkneefr			N_rkneebk			N_rkneeis			N_lkneefr			N_lknssbk			N_lkneeis			N_rankfr			N_rankis			N_rankbk			N_lankfr			N_lankbk			N_lankis			D_lasi			D_rasi			D_lpsi			D_fneck			D_bneck			D_fhead			D_rhead			D_lhead			D_rshld			D_relbtop			D_relbext			D_relblow			D_rwrext			D_rwrtop			D_rwrlow			D_lshld			D_lelbext			D_lelblow			D_lelbtop			D_lwrext			D_lwrtop			D_lwrlow			D_rtopleg			D_ltopleg			D_rkneefr			D_rkneebk			D_rkneeis			D_lkneefr			D_lknssbk			D_lkneeis			D_rankfr			D_rankis			D_rankbk			D_lankfr			D_lankbk			D_lankis			D_rpsi			N_lelbext		
		X1	Y1	Z1	X2	Y2	Z2	X3	Y3	Z3	X4	Y4	Z4	X5	Y5	Z5	X6	Y6	Z6	X7	Y7	Z7	X8	Y8	Z8	X9	Y9	Z9	X10	Y10	Z10	X11	Y11	Z11	X12	Y12	Z12	X13	Y13	Z13	X14	Y14	Z14	X15	Y15	Z15	X16	Y16	Z16	X17	Y17	Z17	X18	Y18	Z18	X19	Y19	Z19	X20	Y20	Z20	X21	Y21	Z21	X22	Y22	Z22	X23	Y23	Z23	X24	Y24	Z24	X25	Y25	Z25	X26	Y26	Z26	X27	Y27	Z27	X28	Y28	Z28	X29	Y29	Z29	X30	Y30	Z30	X31	Y31	Z31	X32	Y32	Z32	X33	Y33	Z33	X34	Y34	Z34	X35	Y35	Z35	X36	Y36	Z36	X37	Y37	Z37	X38	Y38	Z38	X39	Y39	Z39	X40	Y40	Z40	X41	Y41	Z41	X42	Y42	Z42	X43	Y43	Z43	X44	Y44	Z44	X45	Y45	Z45	X46	Y46	Z46	X47	Y47	Z47	X48	Y48	Z48	X49	Y49	Z49	X50	Y50	Z50	X51	Y51	Z51	X52	Y52	Z52	X53	Y53	Z53	X54	Y54	Z54	X55	Y55	Z55	X56	Y56	Z56	X57	Y57	Z57	X58	Y58	Z58	X59	Y59	Z59	X60	Y60	Z60	X61	Y61	Z61	X62	Y62	Z62	X63	Y63	Z63	X64	Y64	Z64	X65	Y65	Z65	X66	Y66	Z66	X67	Y67	Z67	X68	Y68	Z68	X69	Y69	Z69	X70	Y70	Z70	X71	Y71	Z71	X72	Y72	Z72	X73	Y73	Z73	X74	Y74	Z74
																																																																																																																																																																																																																															
159	29.633	-534.95174	1239.83215	-89.98137	-508.04844	1255.94551	-319.39335	-240.60577	1229.22623	-359.03072	-279.21148	1221.35864	-10.49963	-409.85966	1611.64703	-190.66031	-247.36645	1665.4245	-168.75765	-441.04084	1807.33292	-186.83405	-245.85827	1768.76511	-230.30491	-307.01796	1776.22879	-85.47255	-254.592	1648.32901	-361.4996	-229.90458	1607.005	-632.46899	-308.88422	1557.86545	-639.55959	-302.7997	1663.66669	-618.08834	-249.31301	1672.86041	-953.62045	-296.55685	1679.35959	-960.94673	-320.23693	1638.95477	-948.91045	-267.42924	1611.72165	11.61726	-293.66106	1628.0481	259.89624	-319.72218	1553.42743	302.36942	-365.94967	1891.35803	356.98029	-325.5872	1899.62967	381.75076	-291.07485	1884.66766	340.68768	-407.05025	1055.28206	-453.56117	-377.11414	1016.55838	34.3852	-430.50629	561.94637	-267.18248	-323.14365	577.62486	-334.01131	-369.77825	565.31372	-173.08201	-383.14495	540.47745	-107.40218	-257.50984	557.32178	-47.05452	-257.49367	547.34814	-196.46818	-296.48155	138.77195	-272.68528	-299.09975	154.26066	-192.94958	-216.92144	141.54016	-217.14579	-333.19527	193.20574	-121.0463	-260.61069	186.85671	-77.54257	-296.61069	165.85671	-161.54257	-461.62373	1034.91913	1744.81064	-432.53719	1057.1756	1457.99759	-262.474	1129.70398	1744.47418	-416.50101	1565.95245	1619.7821	-276.47341	1589.23279	1627.96707	-444.21776	1783.17169	1624.66995	-283.65675	1728.3255	1552.48535	-297.57435	1723.8176	1706.79672	-328.00243	1563.42224	1453.57361	-310.1066	1425.23636	1186.76384	-382.87403	1434.47525	1196.44852	-309.82576	1509.35043	1196.30791	-418.96172	1544.16046	963.44444	-424.69509	1597.48642	983.29353	-464.77509	1576.87225	1013.10585	-324.6814	1538.52524	1822.56836	-431.97487	1430.75867	2027.2905	-342.22023	1451.94138	2048.46222	-386.26354	1390.35294	2077.03323	-490.71529	1647.63855	2122.76306	-451.96304	1663.31375	2106.16516	-455.33005	1658.51471	2056.92184	-340.41782	1004.78821	1407.8862	-319.21461	1009.05975	1807.9776	-376.07227	454.93412	1450.88943	-277.09459	491.3686	1422.2673	-282.88443	458.83514	1542.92252	-357.60231	448.16837	1770.94131	-244.48002	485.58559	1785.70038	-317.37598	443.55534	1678.97614	-324.43615	130.37612	1418.05008	-295.08997	126.88195	1482.72049	-244.24131	128.35439	1417.81342	-323.08006	135.04219	1792.47452	-250.04234	124.80533	1805.99792	-294.14162	123.92323	1732.98096	-240.63759	1147.30255	1525.93979	-387.78294	1596.8631	263.77689
160	29.65	-535.21919	1240.18616	-90.84151	-507.61806	1256.16615	-320.18185	-240.09373	1229.0435	-359.16424	-279.29735	1221.21025	-10.52662	-409.37935	1611.57593	-190.71447	-246.88614	1665.35324	-168.8118	-441.03928	1806.63864	-187.3588	-245.61102	1768.99933	-230.22198	-307.39721	1775.91019	-85.53264	-253.47754	1648.56094	-361.11191	-227.97583	1607.77908	-632.22733	-307.09433	1558.88794	-639.53636	-300.75617	1664.66248	-617.97279	-246.36051	1674.41711	-953.20244	-293.47462	1680.72754	-960.84053	-318.08405	1640.39795	-949.17061	-267.19572	1611.64215	11.13501	-294.07314	1627.84866	259.4212	-320.20668	1553.33542	301.94826	-365.9137	1891.50909	355.1244	-325.5827	1899.76318	379.87812	-290.94757	1884.48669	338.9172	-406.77967	1055.46677	-454.21738	-377.77557	1016.70952	34.42348	-430.6266	561.99387	-267.35292	-323.18939	577.58442	-334.06246	-370.06203	565.27653	-173.12952	-383.53386	540.40188	-107.54878	-258.08208	557.30286	-46.91338	-257.78572	547.33807	-196.2911	-296.4455	138.7618	-272.68129	-299.13681	154.25964	-192.95353	-217.06751	141.52759	-217.00026	-333.28918	193.14299	-121.11342	-260.60493	186.67406	-77.59604	-296.60493	165.67406	-161.59604	-461.81179	1034.82483	1744.4751	-432.11803	1057.20078	1457.84378	-262.62918	1129.92355	1744.8941	-416.8539	1566.03714	1620.98465	-276.59363	1589.45908	1629.38492	-444.49631	1783.26157	1626.10504	-283.85756	1728.51593	1554.19098	-297.97165	1723.58932	1708.44925	-328.08533	1564.35944	1455.25192	-311.88	1430.20706	1187.71065	-385.33211	1439.00299	1195.79201	-311.39051	1514.62555	1195.54314	-408.66535	1540.17731	956.30608	-418.42457	1593.3345	974.24965	-459.59225	1571.24847	1001.19141	-325.8609	1538.32703	1823.13873	-437.27512	1434.52759	2025.74188	-347.33727	1453.19153	2048.59558	-393.97381	1393.44315	2077.30225	-489.84188	1656.02768	2112.01675	-449.94919	1669.57245	2097.61169	-450.5645	1663.27103	2048.11478	-339.77718	1004.88701	1407.9007	-319.71764	1009.15359	1808.24951	-375.80666	454.9929	1450.89355	-276.73841	491.39881	1422.51541	-282.80228	458.78059	1543.1279	-357.57404	448.18169	1770.98404	-244.48185	485.5669	1785.99548	-317.21371	443.53874	1679.17038	-324.37096	130.3913	1418.11371	-295.10136	126.82221	1482.70828	-244.15945	128.3564	1417.95212	-323.11268	134.98925	1792.47803	-250.07919	124.78442	1806.09055	-294.13391	123.9482	1733.04092	-240.51914	1147.45544	1526.32126	-388.27354	1596.73187	263.28709
161	29.667	-535.40871	1240.44937	-91.62887	-507.15023	1256.39709	-321.02303	-239.54205	1228.82874	-359.3697	-279.27801	1221.02371	-10.63402	-408.91785	1611.44806	-190.83738	-246.42464	1665.22552	-168.93473	-440.93971	1805.96008	-187.93068	-245.24555	1768.82248	-230.53959	-307.50957	1775.58701	-85.6254	-252.59789	1648.70712	-360.91164	-226.50705	1608.32779	-631.91673	-305.5727	1559.6994	-639.88899	-299.18491	1665.30838	-617.7494	-243.76904	1675.94864	-952.80624	-290.91501	1682.03537	-960.65781	-315.35694	1641.56525	-949.15657	-267.14025	1611.40793	10.81947	-294.56989	1627.66312	259.13433	-321.03725	1553.10028	301.61493	-366.62636	1891.48346	353.66947	-326.07483	1899.67926	378.54855	-291.53164	1884.29611	337.72945	-406.30966	1055.60104	-454.82674	-378.22544	1016.77284	34.31935	-430.75874	562.00844	-267.48896	-323.27518	577.56317	-334.11404	-370.28217	565.2494	-173.21918	-383.89736	540.38666	-107.59164	-258.51645	557.31953	-46.79159	-258.02082	547.3473	-196.15931	-296.40482	138.74809	-272.64633	-299.13956	154.21625	-192.96965	-217.02637	141.57039	-216.98826	-333.43479	193.12546	-121.13987	-260.76132	186.70832	-77.5492	-296.76132	165.70832	-161.5492	-461.95961	1034.83765	1744.21768	-431.63982	1057.20108	1457.67273	-263.21951	1129.89403	1745.28076	-417.20036	1566.04172	1621.77231	-277.35661	1589.14948	1630.09247	-444.77879	1783.2724	1627.5238	-284.0205	1728.591	1555.7132	-298.32663	1723.31848	1709.94537	-328.23219	1564.9527	1456.80969	-313.99817	1435.13962	1188.46718	-387.90825	1443.74313	1195.08217	-312.86322	1519.69513	1194.59152	-398.54794	1535.73532	949.98138	-411.38515	1589.3454	965.92918	-453.67031	1566.15509	990.45967	-327.32796	1538.25165	1823.57529	-442.37267	1438.43567	2024.28329	-352.47303	1454.6785	2048.43185	-401.19732	1396.69037	2077.63672	-489.12308	1663.47336	2102.63428	-448.15578	1674.94781	2089.1748	-444.64867	1667.84836	2042.11121	-338.95157	1004.91005	1408.08456	-320.11112	1009.10355	1808.41507	-375.53398	455.07957	1450.8197	-276.32244	491.49872	1422.64511	-282.74237	458.75271	1543.26645	-357.59937	448.16936	1770.94696	-244.53131	485.5566	1786.39847	-317.03434	443.5981	1679.28162	-324.27097	130.44777	1418.09891	-295.09012	126.8358	1482.75696	-244.06166	128.33301	1418.09906	-323.14903	134.97847	1792.5264	-250.12493	124.79845	1806.21063	-294.04785	123.95526	1733.09799	-240.31445	1147.55028	1526.81427	-388.92376	1596.46729	262.70706
162	29.683	-535.54928	1240.62965	-92.47541	-506.74454	1256.5715	-321.87412	-239.02544	1228.57559	-359.56139	-279.21444	1220.98488	-10.69775	-408.78708	1610.96802	-190.83799	-246.29389	1664.74548	-168.93534	-440.73208	1805.41962	-188.40351	-244.57403	1769.30099	-230.18576	-307.15889	1775.25452	-86.06367	-251.76224	1648.83652	-360.5526	-224.90538	1608.9212	-631.76479	-304.08573	1560.40787	-639.56573	-297.85549	1665.80826	-617.59518	-241.60013	1677.20596	-952.4057	-288.74207	1683.3313	-960.23972	-312.7824	1642.66479	-949.09866	-267.03281	1611.09421	10.69558	-295.31015	1627.36954	258.98775	-321.92966	1552.89291	301.20071	-367.4437	1891.2822	352.90318	-327.19093	1899.47571	377.76524	-292.42294	1884.06555	337.05452	-405.83603	1055.66345	-455.46486	-378.66833	1016.86394	34.06678	-430.88253	562.02778	-267.60519	-323.34522	577.54692	-334.19792	-371.42395	565.56103	-172.73153	-384.29096	540.38372	-107.70341	-258.96267	557.36073	-46.63477	-258.2177	547.40959	-196.082	-296.3945	138.75746	-272.7253	-299.05731	154.17382	-193.01819	-217.24272	141.53315	-216.83468	-333.53771	193.07537	-121.19038	-260.92766	186.71844	-77.50659	-296.92766	165.71844	-161.50659	-462.28336	1034.80423	1743.8913	-431.06018	1057.1608	1457.44446	-263.49182	1130.01434	1745.71335	-417.5919	1566.11832	1622.41211	-277.68064	1589.31366	1630.99426	-444.94213	1783.25485	1628.77197	-284.07326	1728.67142	1557.02103	-298.55566	1723.20251	1711.22055	-328.47065	1565.49515	1458.18512	-316.25141	1439.41269	1188.79128	-390.73452	1448.57498	1194.4072	-314.06435	1524.32755	1193.6853	-388.99872	1531.27304	944.85313	-403.8303	1585.16678	958.37708	-447.24644	1561.90536	981.24001	-328.30208	1538.22708	1823.88626	-446.98673	1442.36115	2022.72202	-357.16156	1456.01364	2048.1897	-408.18024	1399.62631	2077.23114	-487.8632	1670.14282	2094.71527	-445.95844	1679.87198	2083.92059	-440.26318	1671.7601	2036.5593	-338.30669	1004.90112	1408.2196	-320.50003	1008.97461	1808.58749	-375.26337	455.17342	1450.73914	-275.93204	491.50852	1422.85339	-282.70315	458.6496	1543.35678	-357.56748	448.14789	1770.94223	-244.59387	485.57186	1786.78528	-316.76472	443.61923	1679.3338	-324.15066	130.48198	1418.08701	-295.09251	126.83887	1482.75055	-243.96904	128.30631	1418.23471	-323.16868	134.96384	1792.4649	-250.19968	124.79782	1806.35773	-293.91195	123.94836	1733.14026	-240.13269	1147.68394	1527.35916	-389.60052	1596.21841	262.09341
